<?xml version="1.0" encoding="utf-8"?>
<!-- Generator: Adobe Illustrator 16.0.0, SVG Export Plug-In . SVG Version: 6.00 Build 0)  -->
<!DOCTYPE svg PUBLIC "-//W3C//DTD SVG 1.1//EN" "http://www.w3.org/Graphics/SVG/1.1/DTD/svg11.dtd">
<svg version="1.1" id="Layer_1" xmlns="http://www.w3.org/2000/svg" xmlns:xlink="http://www.w3.org/1999/xlink" x="0px" y="0px"
	 width="40px" height="500px" viewBox="0 0 40 500" enable-background="new 0 0 40 500" xml:space="preserve">
<g>
	<linearGradient id="SVGID_1_" gradientUnits="userSpaceOnUse" x1="8.9727" y1="299.0449" x2="25.4751" y2="270.4619">
		<stop  offset="0" style="stop-color:#0C3454"/>
		<stop  offset="0.9946" style="stop-color:#2FA397"/>
	</linearGradient>
	<circle fill="url(#SVGID_1_)" cx="17.223" cy="284.753" r="16.5"/>
	<g>
		<path fill="#FFFFFF" d="M16.686,277.222c0.049,0,0.096,0.002,0.145,0.002c0.066,0.002,0.133,0.002,0.201,0.002
			c0.066,0,0.135,0,0.201-0.002c0.047,0,0.096-0.002,0.143-0.002c0.018,0,0.035,0,0.051-0.002c1.641-0.049,2.864-0.398,3.249-0.775
			v-1.289c-0.711,0.459-2.209,0.701-3.643,0.701c-1.434,0-2.934-0.242-3.643-0.701v1.287c0.383,0.379,1.607,0.729,3.246,0.777
			C16.653,277.222,16.67,277.222,16.686,277.222L16.686,277.222z M16.686,277.222"/>
		<path fill="#FFFFFF" d="M20.675,274.118v-0.314c0-0.023-0.008-0.043-0.02-0.063c-0.164-0.59-1.422-1.17-3.624-1.17
			c-2.197,0-3.453,0.576-3.621,1.166c-0.014,0.02-0.021,0.041-0.021,0.066v0.314c0.412,0.406,1.793,0.781,3.643,0.781
			C18.878,274.899,20.261,274.524,20.675,274.118L20.675,274.118z M20.675,274.118"/>
		<path fill="#FFFFFF" d="M16.686,281.917c0.049,0,0.096,0.002,0.145,0.002c0.066,0.002,0.133,0.002,0.201,0.002
			c0.066,0,0.135,0,0.201-0.002c0.047,0,0.096-0.002,0.143-0.002c0.018-0.002,0.035-0.002,0.051-0.002
			c1.641-0.049,2.864-0.4,3.249-0.775v-1.289c-0.711,0.459-2.209,0.701-3.643,0.701c-1.434,0-2.934-0.242-3.643-0.701v1.289
			c0.383,0.375,1.607,0.727,3.246,0.775C16.653,281.915,16.67,281.915,16.686,281.917L16.686,281.917z M16.686,281.917"/>
		<path fill="#FFFFFF" d="M16.686,279.563c0.049,0,0.096,0.002,0.145,0.002c0.066,0.002,0.133,0.002,0.201,0.002
			c0.066,0,0.135,0,0.201-0.002c0.047,0,0.096-0.002,0.143-0.002c0.018-0.002,0.035-0.002,0.051-0.002
			c1.641-0.049,2.864-0.398,3.249-0.775v-1.289c-0.711,0.459-2.209,0.701-3.643,0.701c-1.434,0-2.934-0.242-3.643-0.701v1.287
			c0.383,0.379,1.607,0.729,3.246,0.777C16.653,279.562,16.67,279.562,16.686,279.563L16.686,279.563z M16.686,279.563"/>
	</g>
	<g>
		<path fill="#FFFFFF" d="M13.452,284.716h9v-0.67h-9.61c0,0-1.191-0.039-1.061,2.009v9.861c0,0-0.051,0.68,1.061,1.02h9.61v-9.6h-9
			C11.782,286.055,13.452,284.716,13.452,284.716z M14.292,290.275h6.75c0.209,0,0.381,0.17,0.381,0.369
			c0,0.211-0.172,0.381-0.381,0.381h-6.75c-0.199,0-0.369-0.17-0.369-0.381C13.922,290.445,14.092,290.275,14.292,290.275z
			 M14.292,292.025h6.75c0.209,0,0.381,0.17,0.381,0.369c0,0.211-0.172,0.381-0.381,0.381h-6.75c-0.199,0-0.369-0.17-0.369-0.381
			C13.922,292.195,14.092,292.025,14.292,292.025z M14.292,293.775h6.75c0.209,0,0.381,0.17,0.381,0.369
			c0,0.211-0.172,0.381-0.381,0.381h-6.75c-0.199,0-0.369-0.17-0.369-0.381C13.922,293.945,14.092,293.775,14.292,293.775z"/>
	</g>
	<line fill="#FFFFFF" x1="13.389" y1="285.136" x2="22.106" y2="285.136"/>
	<line fill="#FFFFFF" x1="13.389" y1="285.658" x2="22.106" y2="285.658"/>
	<line fill="#FFFFFF" x1="13.389" y1="286.184" x2="22.106" y2="286.184"/>
	<line fill="#FFFFFF" x1="13.389" y1="286.707" x2="22.106" y2="286.707"/>
	<path fill="#FFFFFF" d="M29.026,285.212l-1.375,0.284c1.271-1.011,1.889-2.624,1.555-4.235c-0.404-1.953-2.039-3.426-3.977-3.58
		c-0.18-0.014-0.34,0.119-0.352,0.299c-0.014,0.18,0.119,0.338,0.299,0.352c1.625,0.129,3.051,1.416,3.391,3.061
		c0.303,1.459-0.316,2.92-1.551,3.764l-0.305-1.461l-0.637,0.131l0.527,2.556l2.557-0.529L29.026,285.212z M29.026,285.212"/>
	<path fill="#FFFFFF" d="M5.924,279.335l1.406,0.018c-1.461,0.715-2.41,2.158-2.434,3.803c-0.025,1.994,1.254,3.784,3.111,4.351
		c0.174,0.055,0.357-0.041,0.408-0.215s-0.045-0.355-0.215-0.408c-1.561-0.477-2.676-2.038-2.652-3.718
		c0.02-1.49,0.939-2.783,2.326-3.342l-0.018,1.494l0.65,0.008l0.035-2.609l-2.609-0.035L5.924,279.335z M5.924,279.335"/>
</g>
<g>
	<linearGradient id="SVGID_2_" gradientUnits="userSpaceOnUse" x1="8.3159" y1="147.209" x2="24.8186" y2="118.6255">
		<stop  offset="0" style="stop-color:#0C3454"/>
		<stop  offset="0.9946" style="stop-color:#2FA397"/>
	</linearGradient>
	<circle fill="url(#SVGID_2_)" cx="16.567" cy="132.917" r="16.5"/>
	<g>
		<path fill="#FFFFFF" d="M15.745,127.326H8.229c-0.776,0-1.408,0.631-1.408,1.407v0.545H6.278c-0.776,0-1.407,0.631-1.407,1.408
			v10.817c0,0.775,0.631,1.406,1.407,1.406h7.516c0.777,0,1.409-0.631,1.409-1.406v-0.544h0.542c0.776,0,1.409-0.632,1.409-1.409
			v-10.817C17.154,127.958,16.521,127.326,15.745,127.326L15.745,127.326z M13.794,129.278H7.889v-0.545
			c0-0.188,0.152-0.341,0.341-0.341h7.516c0.188,0,0.342,0.153,0.342,0.341v10.817c0,0.188-0.153,0.342-0.342,0.342h-0.542v-9.206
			C15.203,129.909,14.571,129.278,13.794,129.278L13.794,129.278z M5.938,130.687c0-0.188,0.152-0.341,0.341-0.341h7.516
			c0.189,0,0.342,0.153,0.342,0.341v10.817c0,0.188-0.152,0.341-0.342,0.341H6.278c-0.188,0-0.341-0.153-0.341-0.341V130.687z
			 M5.938,130.687"/>
		<path fill="#FFFFFF" d="M8.061,133.38h3.022c0.293,0,0.533-0.24,0.533-0.533c0-0.295-0.24-0.535-0.533-0.535H8.061
			c-0.294,0-0.534,0.24-0.534,0.535C7.526,133.14,7.767,133.38,8.061,133.38L8.061,133.38z M8.061,133.38"/>
		<path fill="#FFFFFF" d="M8.061,135.705h3.953c0.294,0,0.533-0.239,0.533-0.534c0-0.293-0.239-0.532-0.533-0.532H8.061
			c-0.294,0-0.534,0.239-0.534,0.532C7.526,135.466,7.767,135.705,8.061,135.705L8.061,135.705z M8.061,135.705"/>
		<path fill="#FFFFFF" d="M8.061,138.029h3.953c0.294,0,0.533-0.238,0.533-0.533s-0.239-0.534-0.533-0.534H8.061
			c-0.294,0-0.534,0.239-0.534,0.534S7.767,138.029,8.061,138.029L8.061,138.029z M8.061,138.029"/>
		<path fill="#FFFFFF" d="M8.061,140.354h3.953c0.294,0,0.533-0.238,0.533-0.531c0-0.295-0.239-0.534-0.533-0.534H8.061
			c-0.294,0-0.534,0.239-0.534,0.534C7.526,140.115,7.767,140.354,8.061,140.354L8.061,140.354z M8.061,140.354"/>
		<path fill="#FFFFFF" d="M28.561,124.241h-8.552c-0.289,0-0.524,0.234-0.524,0.523v3.733h1.048v-3.21h7.504v8.822h-1.435
			c-0.289,0-0.523,0.235-0.523,0.524v1.436h-5.546v-3.185h-1.048v3.708c0,0.287,0.235,0.523,0.524,0.523h6.593
			c0.138,0,0.271-0.055,0.37-0.153l1.959-1.958c0.1-0.1,0.153-0.23,0.153-0.371v-9.87C29.084,124.476,28.85,124.241,28.561,124.241
			L28.561,124.241z M28.561,124.241"/>
		<path fill="#FFFFFF" d="M21.401,132.731c0,0.191,0.114,0.361,0.292,0.434c0.057,0.023,0.118,0.035,0.179,0.035
			c0.128,0,0.246-0.047,0.333-0.137l2.04-2.039c0.089-0.088,0.138-0.207,0.138-0.332c0-0.123-0.051-0.246-0.138-0.334l-2.04-2.037
			c-0.13-0.131-0.338-0.174-0.513-0.104c-0.177,0.074-0.291,0.245-0.291,0.436v0.502h-2.92c-0.259,0-0.47,0.211-0.47,0.472v2.132
			c0,0.26,0.211,0.471,0.47,0.471h2.92V132.731z M21.401,132.731"/>
	</g>
</g>
<g>
	<linearGradient id="SVGID_3_" gradientUnits="userSpaceOnUse" x1="8.9712" y1="222.8047" x2="25.474" y2="194.221">
		<stop  offset="0" style="stop-color:#0C3454"/>
		<stop  offset="0.9946" style="stop-color:#2FA397"/>
	</linearGradient>
	<circle fill="url(#SVGID_3_)" cx="17.222" cy="208.513" r="16.5"/>
	<g>
		<path fill="#FFFFFF" d="M18.306,197.163h-0.479c-0.258,0-0.465-0.207-0.465-0.463v-0.016c0-0.594-0.482-1.076-1.076-1.076h-0.023
			c-0.596,0-1.078,0.482-1.078,1.076v0.016c0,0.256-0.207,0.463-0.463,0.463h-0.479c-0.512,0-0.924,0.414-0.924,0.924v0.019
			c0,0.511,0.412,0.925,0.924,0.925h4.063c0.51,0,0.924-0.414,0.924-0.925v-0.019C19.229,197.577,18.815,197.163,18.306,197.163
			L18.306,197.163z M16.274,197.14c-0.299,0-0.539-0.242-0.539-0.539c0-0.298,0.24-0.539,0.539-0.539
			c0.297,0,0.539,0.241,0.539,0.539C16.813,196.897,16.571,197.14,16.274,197.14L16.274,197.14z M18.673,217.977H9.628
			c-0.795,0-1.438-0.644-1.438-1.437v-17.245c0-0.794,0.643-1.437,1.078-1.437h2.91c-0.023,0.119-0.037,0.242-0.037,0.369
			c0,0.985,0.803,1.785,1.787,1.785h4.691c0.984,0,1.785-0.8,1.785-1.807c0-0.119-0.012-0.235-0.035-0.348h2.191
			c1.152,0,1.795,0.643,1.795,1.437v10.797c-0.117-0.008-0.236-0.019-0.357-0.019c-0.498,0,0.021,0.069-0.438,0.188v-9.452H8.987
			v16.371h9.281C18.308,217.812,18.444,217.417,18.673,217.977L18.673,217.977z M23.999,211.15c-2.58,0-4.672,2.091-4.672,4.671
			c0,2.579,2.092,4.67,4.672,4.67c2.578,0,4.67-2.091,4.67-4.67C28.669,213.241,26.577,211.15,23.999,211.15L23.999,211.15z
			 M27.05,214.862l-2.873,3.232c-0.143,0.159-0.34,0.241-0.537,0.241c-0.16,0-0.316-0.052-0.451-0.157l-1.795-1.438
			c-0.309-0.248-0.359-0.699-0.111-1.01s0.699-0.359,1.01-0.111l1.264,1.01l2.42-2.724c0.264-0.296,0.719-0.323,1.016-0.06
			C27.286,214.11,27.313,214.564,27.05,214.862L27.05,214.862z M20.765,207.917h-5.748c-0.199,0-0.359-0.16-0.359-0.359v-0.358
			c0-0.198,0.16-0.36,0.359-0.36h5.748c0.199,0,0.359,0.162,0.359,0.36v0.358C21.124,207.757,20.964,207.917,20.765,207.917
			L20.765,207.917z M20.765,204.685h-5.748c-0.199,0-0.359-0.161-0.359-0.36v-0.358c0-0.198,0.16-0.359,0.359-0.359h5.748
			c0.199,0,0.359,0.161,0.359,0.359v0.358C21.124,204.523,20.964,204.685,20.765,204.685L20.765,204.685z M18.968,210.791h-3.951
			c-0.199,0-0.359-0.16-0.359-0.358v-0.359c0-0.199,0.16-0.358,0.359-0.358l3.951-0.001c0.199,0,0.359,0.16,0.359,0.359v0.359
			C19.327,210.631,19.167,210.791,18.968,210.791L18.968,210.791z M18.249,214.024h-3.232c-0.199,0-0.359-0.16-0.359-0.359v-0.359
			c0-0.197,0.16-0.358,0.359-0.358h3.232c0.199,0,0.359,0.161,0.359,0.358v0.359C18.608,213.864,18.448,214.024,18.249,214.024
			L18.249,214.024z M13.97,203.354l-1.324,1.49c-0.064,0.072-0.156,0.11-0.248,0.11c-0.072,0-0.145-0.024-0.205-0.073l-0.828-0.661
			c-0.143-0.114-0.164-0.322-0.051-0.466c0.113-0.143,0.322-0.164,0.465-0.051l0.582,0.465l1.115-1.254
			c0.119-0.137,0.33-0.148,0.467-0.027C14.079,203.01,14.091,203.219,13.97,203.354L13.97,203.354z M13.97,206.552l-1.324,1.488
			c-0.064,0.073-0.156,0.111-0.248,0.111c-0.072,0-0.145-0.023-0.205-0.072l-0.828-0.662c-0.143-0.113-0.164-0.322-0.051-0.465
			s0.322-0.166,0.465-0.051l0.582,0.465l1.115-1.254c0.119-0.137,0.33-0.148,0.467-0.027S14.091,206.415,13.97,206.552
			L13.97,206.552z M13.97,209.608l-1.324,1.488c-0.064,0.073-0.156,0.111-0.248,0.111c-0.072,0-0.145-0.024-0.205-0.073
			l-0.828-0.661c-0.143-0.114-0.164-0.322-0.051-0.464c0.113-0.144,0.322-0.166,0.465-0.052l0.582,0.465l1.115-1.254
			c0.119-0.136,0.33-0.148,0.467-0.027S14.091,209.471,13.97,209.608L13.97,209.608z M13.97,212.687l-1.324,1.488
			c-0.064,0.074-0.156,0.111-0.248,0.111c-0.072,0-0.145-0.023-0.205-0.072l-0.828-0.662c-0.143-0.113-0.164-0.322-0.051-0.464
			c0.113-0.144,0.322-0.167,0.465-0.052l0.582,0.465l1.115-1.254c0.119-0.136,0.33-0.149,0.467-0.026
			C14.079,212.342,14.091,212.551,13.97,212.687L13.97,212.687z M13.97,212.687"/>
	</g>
</g>
<g>
	<linearGradient id="SVGID_4_" gradientUnits="userSpaceOnUse" x1="8.6533" y1="260.0508" x2="25.157" y2="231.4656">
		<stop  offset="0" style="stop-color:#0C3454"/>
		<stop  offset="0.9946" style="stop-color:#2FA397"/>
	</linearGradient>
	<path fill="url(#SVGID_4_)" d="M16.905,229.257c-9.119,0-16.5,7.389-16.5,16.5c0,9.119,7.381,16.5,16.5,16.5
		c9.111,0,16.5-7.381,16.5-16.5C33.405,236.646,26.017,229.257,16.905,229.257z"/>
	<g>
		<path fill="#FFFFFF" d="M11.71,243.792c-2.568,0-5.252-0.428-6.514-1.246v2.305c0.678,0.678,2.877,1.295,5.801,1.391h1.414
			c0.594-0.025,1.141-0.061,1.664-0.119c1.057-1.059,2.529-1.723,4.146-1.723v-1.854C16.95,243.364,14.276,243.792,11.71,243.792z"
			/>
		<path fill="#FFFFFF" d="M18.218,240.69v-0.563c0-0.041-0.016-0.078-0.035-0.113c-0.291-1.051-2.539-2.09-6.477-2.09
			c-3.928,0-6.172,1.031-6.473,2.082c-0.023,0.037-0.039,0.078-0.039,0.121v0.563c0.738,0.727,3.207,1.396,6.512,1.396
			C15.007,242.087,17.479,241.417,18.218,240.69L18.218,240.69z M18.218,240.69"/>
		<path fill="#FFFFFF" d="M12.743,252.171c-0.344,0.012-0.689,0.023-1.033,0.023c-2.568,0-5.252-0.439-6.514-1.248v2.293
			c0.678,0.678,2.877,1.309,5.801,1.391h0.096c0.082,0,0.166,0,0.248,0.012h0.725c0.084-0.012,0.168-0.012,0.25-0.012h0.096
			c0.666-0.023,1.283-0.07,1.865-0.143C13.587,253.858,13.052,253.073,12.743,252.171z"/>
		<path fill="#FFFFFF" d="M12.862,247.952c-0.381,0.023-0.771,0.035-1.152,0.035c-2.568,0-5.252-0.439-6.514-1.26v2.305
			c0.678,0.678,2.877,1.309,5.801,1.391h0.096c0.082,0,0.166,0,0.248,0.012h0.725c0.084-0.012,0.168-0.012,0.25-0.012h0.096
			c-0.012-0.07-0.012-0.143-0.012-0.213C12.399,249.401,12.565,248.642,12.862,247.952z"/>
	</g>
	<g>
		<path fill="#FFFFFF" d="M29.497,238.472c0,0,0.799-0.633,1.229,0.475l-3.508,9.141c0,0,1.225,1.041,0.695,2.758l-4.357-1.686
			c0,0,0.631-1.645,2.434-1.547L29.497,238.472z"/>
		<polygon fill="#FFFFFF" points="23.364,249.657 20.325,253.563 21.89,254.167 23.31,252.364 22.784,254.513 25.577,255.593 
			25.989,254.519 26.284,255.864 27.329,256.269 27.724,251.341 		"/>
	</g>
	<path fill="#FFFFFF" d="M20.905,248.429l-0.65-0.24c-0.525-0.191-0.938-0.605-1.131-1.131l-0.238-0.646
		c-0.01-0.025-0.033-0.041-0.057-0.041c-0.029,0-0.051,0.016-0.061,0.041l-0.238,0.646c-0.193,0.525-0.609,0.939-1.133,1.131
		l-0.646,0.24c-0.025,0.008-0.041,0.033-0.041,0.059s0.016,0.049,0.041,0.059l0.646,0.238c0.523,0.193,0.939,0.607,1.133,1.133
		l0.238,0.646c0.01,0.025,0.031,0.041,0.061,0.041c0.023,0,0.047-0.016,0.057-0.041l0.238-0.646
		c0.193-0.525,0.605-0.939,1.131-1.133l0.65-0.238c0.021-0.01,0.039-0.033,0.039-0.059S20.927,248.437,20.905,248.429
		L20.905,248.429z M20.905,248.429"/>
	<path fill="#FFFFFF" d="M16.677,251.466l-0.496-0.182c-0.402-0.15-0.719-0.467-0.871-0.869l-0.182-0.496
		c-0.008-0.021-0.025-0.033-0.045-0.033s-0.037,0.012-0.043,0.033l-0.186,0.496c-0.148,0.402-0.465,0.719-0.869,0.869l-0.496,0.182
		c-0.018,0.008-0.031,0.025-0.031,0.045s0.014,0.039,0.031,0.045l0.496,0.184c0.404,0.148,0.721,0.467,0.869,0.869l0.186,0.496
		c0.006,0.018,0.023,0.029,0.043,0.029s0.037-0.012,0.045-0.029l0.182-0.496c0.152-0.402,0.469-0.721,0.871-0.869l0.496-0.184
		c0.02-0.006,0.033-0.025,0.033-0.045S16.696,251.474,16.677,251.466L16.677,251.466z M16.677,251.466"/>
	<path fill="#FFFFFF" d="M19.13,253.851l-0.299-0.109c-0.242-0.09-0.434-0.281-0.525-0.523l-0.107-0.299
		c-0.006-0.012-0.016-0.02-0.029-0.02c-0.01,0-0.021,0.008-0.025,0.02l-0.111,0.299c-0.088,0.242-0.279,0.434-0.521,0.523
		l-0.301,0.109c-0.01,0.004-0.018,0.016-0.018,0.027s0.008,0.023,0.018,0.025l0.301,0.111c0.242,0.09,0.434,0.281,0.521,0.523
		l0.111,0.299c0.004,0.01,0.016,0.018,0.025,0.018c0.014,0,0.023-0.008,0.029-0.018l0.107-0.299
		c0.092-0.242,0.283-0.434,0.525-0.523l0.299-0.111c0.012-0.002,0.02-0.014,0.02-0.025S19.142,253.854,19.13,253.851L19.13,253.851z
		 M19.13,253.851"/>
</g>
<g>
	<linearGradient id="SVGID_5_" gradientUnits="userSpaceOnUse" x1="7.9688" y1="185.3916" x2="24.4725" y2="156.8062">
		<stop  offset="0" style="stop-color:#0C3454"/>
		<stop  offset="0.9946" style="stop-color:#2FA397"/>
	</linearGradient>
	<path fill="url(#SVGID_5_)" d="M16.221,154.597c-9.119,0-16.5,7.391-16.5,16.5c0,9.12,7.381,16.5,16.5,16.5
		c9.112,0,16.5-7.38,16.5-16.5C32.722,161.987,25.333,154.597,16.221,154.597z"/>
	<g>
		<path fill="#FFFFFF" d="M7.786,165.343c0.17,0,0.305-0.138,0.305-0.306v-0.611c0-0.444,0.473-0.916,0.916-0.916h1.223
			c0.168,0,0.305-0.138,0.305-0.306s-0.137-0.306-0.305-0.306H9.006c-0.783,0-1.527,0.743-1.527,1.527v0.611
			C7.479,165.205,7.618,165.343,7.786,165.343L7.786,165.343z M7.786,165.343"/>
		<path fill="#FFFFFF" d="M16.086,180.004h-7.08c-0.443,0-0.916-0.471-0.916-0.916v-12.524h16.19c0.168,0,0.307-0.137,0.307-0.305
			s-0.139-0.305-0.307-0.305H7.786c-0.168,0-0.307,0.137-0.307,0.305v12.829c0,0.785,0.744,1.527,1.527,1.527h7.08
			c0.168,0,0.307-0.137,0.307-0.305C16.393,180.141,16.254,180.004,16.086,180.004L16.086,180.004z M16.086,180.004"/>
		<path fill="#FFFFFF" d="M24.28,173.59"/>
		<path fill="#FFFFFF" d="M24.28,162.898h-1.223c-0.168,0-0.305,0.138-0.305,0.306s0.137,0.306,0.305,0.306h1.223
			c0.445,0,0.916,0.472,0.916,0.916v6.47c0,0.168,0.139,0.305,0.307,0.305s0.305-0.137,0.305-0.305v-6.47
			C25.808,163.642,25.065,162.898,24.28,162.898L24.28,162.898z M24.28,162.898"/>
		<path fill="#FFFFFF" d="M22.298,177.082v-2.459c0-0.451-0.369-0.819-0.818-0.819c-0.451,0-0.818,0.368-0.818,0.819v3.277
			c0,0.451,0.367,0.819,0.818,0.819h4.033c0.455,0,0.824-0.368,0.824-0.819c0-0.452-0.369-0.818-0.824-0.818H22.298z
			 M22.942,176.759"/>
		<rect x="11.176" y="162.361" fill="#FFFFFF" width="1.646" height="2.481"/>
		<rect x="14.29" y="162.361" fill="#FFFFFF" width="1.645" height="2.481"/>
		<rect x="17.401" y="162.361" fill="#FFFFFF" width="1.645" height="2.481"/>
		<rect x="20.513" y="162.361" fill="#FFFFFF" width="1.646" height="2.481"/>
		<g>
			<g>
				<rect x="9.801" y="167.981" fill="#FFFFFF" width="1.824" height="1.824"/>
				<rect x="9.801" y="170.908" fill="#FFFFFF" width="1.824" height="1.824"/>
				<rect x="9.801" y="173.836" fill="#FFFFFF" width="1.824" height="1.824"/>
				<rect x="9.801" y="176.763" fill="#FFFFFF" width="1.824" height="1.825"/>
			</g>
			<g>
				<rect x="12.915" y="167.981" fill="#FFFFFF" width="1.824" height="1.824"/>
				<rect x="12.915" y="170.908" fill="#FFFFFF" width="1.824" height="1.824"/>
				<rect x="12.915" y="173.836" fill="#FFFFFF" width="1.824" height="1.824"/>
				<rect x="12.915" y="176.763" fill="#FFFFFF" width="1.824" height="1.825"/>
			</g>
			<g>
				<rect x="16.026" y="167.981" fill="#FFFFFF" width="1.827" height="1.824"/>
				<rect x="16.026" y="170.908" fill="#FFFFFF" width="1.827" height="1.824"/>
			</g>
			<g>
				<rect x="19.14" y="167.981" fill="#FFFFFF" width="1.824" height="1.824"/>
			</g>
			<g>
				<rect x="22.253" y="167.981" fill="#FFFFFF" width="1.824" height="1.824"/>
			</g>
		</g>
		<path fill="#FFFFFF" d="M22.448,171.795c-3.012,0-5.463,2.449-5.463,5.459c0,3.012,2.451,5.463,5.463,5.463
			c3.01,0,5.461-2.451,5.461-5.463C27.909,174.244,25.458,171.795,22.448,171.795L22.448,171.795z M22.448,181.723
			c-2.463,0-4.469-2.004-4.469-4.469c0-2.463,2.006-4.467,4.469-4.467c2.461,0,4.467,2.004,4.467,4.467
			C26.915,179.719,24.909,181.723,22.448,181.723L22.448,181.723z M22.448,181.723"/>
	</g>
</g>
<g>
	<linearGradient id="SVGID_6_" gradientUnits="userSpaceOnUse" x1="8.5576" y1="72.2783" x2="25.0613" y2="43.6931">
		<stop  offset="0" style="stop-color:#0C3454"/>
		<stop  offset="0.9946" style="stop-color:#2FA397"/>
	</linearGradient>
	<path fill="url(#SVGID_6_)" d="M16.81,41.483c-9.12,0-16.5,7.391-16.5,16.5c0,9.12,7.38,16.5,16.5,16.5c9.11,0,16.5-7.38,16.5-16.5
		C33.31,48.874,25.92,41.483,16.81,41.483z"/>
	<g>
		<path fill="#FFFFFF" d="M25.693,46.62c-1.366,0-2.479,1.111-2.479,2.479c0,0.428,0.108,0.829,0.3,1.183l-4.061,4.062
			c-0.56-0.438-1.262-0.698-2.024-0.698s-1.463,0.26-2.023,0.696l-3.17-3.168c0.147-0.246,0.236-0.528,0.236-0.835
			c0-0.912-0.742-1.652-1.654-1.652c-0.91,0-1.652,0.74-1.652,1.652s0.742,1.652,1.652,1.652c0.307,0,0.589-0.089,0.835-0.234
			l3.17,3.17c-0.436,0.561-0.698,1.261-0.698,2.023c0,0.764,0.263,1.463,0.698,2.024l-5.233,5.233
			c-0.44-0.399-1.023-0.646-1.663-0.646c-1.368,0-2.479,1.111-2.479,2.479c0,1.366,1.111,2.478,2.479,2.478
			c1.366,0,2.479-1.111,2.479-2.478c0-0.428-0.108-0.831-0.3-1.183l5.3-5.303c0.458,0.357,1.009,0.596,1.612,0.67v4.199
			c-1.172,0.197-2.066,1.215-2.066,2.441c0,1.367,1.112,2.479,2.478,2.479c1.368,0,2.479-1.112,2.479-2.479
			c0-1.225-0.896-2.244-2.065-2.441v-4.199c0.604-0.074,1.154-0.313,1.612-0.67l3.167,3.17c-0.146,0.246-0.233,0.529-0.233,0.836
			c0,0.912,0.74,1.652,1.652,1.652s1.652-0.74,1.652-1.652s-0.74-1.652-1.652-1.652c-0.307,0-0.59,0.088-0.834,0.233l-3.169-3.169
			c0.436-0.562,0.698-1.261,0.698-2.024c0-0.763-0.263-1.463-0.698-2.023l3.992-3.992c0.44,0.398,1.023,0.645,1.663,0.645
			c1.368,0,2.479-1.113,2.479-2.479C28.173,47.731,27.062,46.62,25.693,46.62L25.693,46.62z M9.992,50.339
			c0-0.457,0.371-0.825,0.825-0.825c0.456,0,0.827,0.368,0.827,0.825c0,0.455-0.371,0.827-0.827,0.827
			C10.363,51.166,9.992,50.794,9.992,50.339L9.992,50.339z M7.926,67.694c-0.912,0-1.652-0.743-1.652-1.652
			c0-0.912,0.74-1.655,1.652-1.655s1.652,0.743,1.652,1.655C9.578,66.951,8.838,67.694,7.926,67.694L7.926,67.694z M17.429,59.43
			c-1.365,0-2.479-1.111-2.479-2.479c0-1.367,1.114-2.479,2.479-2.479c1.368,0,2.479,1.112,2.479,2.479
			C19.908,58.318,18.797,59.43,17.429,59.43L17.429,59.43z M24.868,63.563c0,0.455-0.371,0.824-0.827,0.824
			s-0.827-0.369-0.827-0.824c0-0.457,0.371-0.828,0.827-0.828S24.868,63.105,24.868,63.563L24.868,63.563z M25.693,50.753
			c-0.912,0-1.652-0.741-1.652-1.653c0-0.911,0.74-1.651,1.652-1.651s1.652,0.74,1.652,1.651
			C27.346,50.012,26.605,50.753,25.693,50.753L25.693,50.753z M25.693,50.753"/>
	</g>
	<circle fill="#FFFFFF" cx="18.747" cy="45.853" r="1.938"/>
	
		<line fill="none" stroke="#FFFFFF" stroke-width="0.5" stroke-miterlimit="10" stroke-dasharray="0.5" x1="18.572" y1="47.79" x2="17.947" y2="53.619"/>
</g>
<g>
	<linearGradient id="SVGID_7_" gradientUnits="userSpaceOnUse" x1="8.2476" y1="109.2783" x2="24.7512" y2="80.6931">
		<stop  offset="0" style="stop-color:#0C3454"/>
		<stop  offset="0.9946" style="stop-color:#2FA397"/>
	</linearGradient>
	<path fill="url(#SVGID_7_)" d="M16.5,78.483c-9.12,0-16.5,7.391-16.5,16.5c0,9.12,7.38,16.5,16.5,16.5c9.11,0,16.5-7.38,16.5-16.5
		C33,85.874,25.61,78.483,16.5,78.483z"/>
	<g>
		<path fill="#E2E2E2" d="M7.921,99.372l-4.616-2.308V91.38l4.616,2.31V99.372z M7.921,99.372"/>
		<path fill="#C7C6C6" d="M7.921,99.372l4.618-2.308V91.38l-4.618,2.31V99.372z M7.921,99.372"/>
		<path fill="#FFFFFF" d="M3.305,91.38l4.439-2.308l4.795,2.308l-4.618,2.31L3.305,91.38z M3.305,91.38"/>
	</g>
	
		<line fill="none" stroke="#FFFFFF" stroke-width="0.5" stroke-miterlimit="10" stroke-dasharray="0.5" x1="10.229" y1="95.376" x2="23.255" y2="101.617"/>
	<polyline fill="none" stroke="#FFFFFF" stroke-width="0.5" stroke-miterlimit="10" points="14.885,88.581 12.539,87.477 
		12.539,82.421 8.872,80.349 	"/>
	<g>
		<path fill="#E2E2E2" d="M23.255,107.3l-4.616-2.308v-5.684l4.616,2.309V107.3z M23.255,107.3"/>
		<path fill="#C7C6C6" d="M23.255,107.3l4.618-2.308v-5.684l-4.618,2.309V107.3z M23.255,107.3"/>
		<path fill="#FFFFFF" d="M18.639,99.309L23.078,97l4.795,2.309l-4.618,2.309L18.639,99.309z M18.639,99.309"/>
	</g>
	<path fill="none" stroke="#FFFFFF" stroke-width="0.5" stroke-miterlimit="10" stroke-dasharray="0.5" d="M16.361,98.314"/>
	<g>
		<path fill="#E2E2E2" d="M24.909,90.323c-0.022-0.018-0.053-0.021-0.08-0.013c0,0-3.036,1.033-3.119,1.062
			c-0.07,0.024-0.115-0.036-0.115-0.036l-0.955-1.18c-0.024-0.029-0.063-0.041-0.1-0.028c-0.035,0.013-0.06,0.046-0.06,0.084v4.283
			c0,0.03,0.016,0.058,0.04,0.074c0.015,0.011,0.032,0.016,0.05,0.016c0.012,0,0.023-0.002,0.034-0.007l4.287-1.771
			c0.033-0.014,0.056-0.047,0.056-0.083v-2.328C24.947,90.366,24.933,90.34,24.909,90.323z"/>
		<path fill="#FBFCFC" d="M25.912,89.365l-0.818-1.093c-0.012-0.016-0.028-0.027-0.047-0.032l-4.757-1.344
			c-0.016-0.004-0.037-0.003-0.054,0.002l-4.756,1.343c-0.02,0.005-0.035,0.017-0.047,0.032l-0.818,1.094
			c-0.018,0.022-0.022,0.053-0.015,0.08c0.009,0.026,0.03,0.049,0.057,0.058l4.022,1.365c0.01,0.003,0.019,0.005,0.028,0.005
			c0.026,0,0.052-0.012,0.069-0.033l1.126-1.388l0.334,0.092c0.016,0.004,0.032,0.004,0.047,0l0,0
			c0.002-0.001,0.004-0.001,0.005-0.001l0.334-0.092l1.126,1.388c0.018,0.021,0.043,0.032,0.069,0.032
			c0.01,0,0.02-0.001,0.029-0.004l4.021-1.365c0.027-0.01,0.048-0.031,0.057-0.059S25.929,89.389,25.912,89.365z M20.266,89.166
			l-3.411-0.933l3.411-0.957l3.406,0.956L20.266,89.166z"/>
		<path fill="#FBFCFC" d="M19.986,90.129c-0.035-0.013-0.075-0.001-0.1,0.028l-0.955,1.18c0,0-0.045,0.061-0.114,0.036
			c-0.083-0.028-3.119-1.061-3.119-1.061c-0.027-0.01-0.058-0.005-0.081,0.012s-0.037,0.044-0.037,0.072v2.329
			c0,0.036,0.021,0.068,0.055,0.082l4.288,1.771c0.011,0.005,0.022,0.007,0.034,0.007c0.018,0,0.034-0.005,0.049-0.015
			c0.025-0.017,0.04-0.045,0.04-0.074v-4.284C20.046,90.176,20.022,90.142,19.986,90.129z"/>
	</g>
	
		<line fill="none" stroke="#FFFFFF" stroke-width="0.5" stroke-miterlimit="10" stroke-dasharray="0.5" x1="32.988" y1="95.58" x2="23.255" y2="92.354"/>
</g>
<g>
	<linearGradient id="SVGID_8_" gradientUnits="userSpaceOnUse" x1="8.6411" y1="34.7949" x2="25.1448" y2="6.2097">
		<stop  offset="0" style="stop-color:#0C3454"/>
		<stop  offset="0.9946" style="stop-color:#2FA397"/>
	</linearGradient>
	<path fill="url(#SVGID_8_)" d="M16.893,4c-9.12,0-16.5,7.391-16.5,16.5c0,9.12,7.38,16.5,16.5,16.5c9.11,0,16.5-7.38,16.5-16.5
		C33.393,11.391,26.003,4,16.893,4z"/>
	<path fill="#FFFFFF" d="M28.268,28.652"/>
	<path fill="#FFFFFF" d="M23.411,17.201c0-5.125-4.153-9.28-9.279-9.28s-9.281,4.155-9.281,9.28s4.155,9.28,9.281,9.28
		C19.258,26.482,23.411,22.326,23.411,17.201L23.411,17.201z M14.132,24.985c-4.292,0-7.784-3.49-7.784-7.784
		c0-4.291,3.492-7.784,7.784-7.784s7.782,3.493,7.782,7.784C21.914,21.493,18.424,24.985,14.132,24.985L14.132,24.985z
		 M14.132,25.858"/>
	<path fill="#FFFFFF" d="M27.643,28.007l-5.202-5.203c-0.777,1.205-1.803,2.23-3.008,3.007l5.204,5.202
		c0.831,0.831,2.175,0.831,3.006,0C28.474,30.184,28.474,28.838,27.643,28.007L27.643,28.007z"/>
	<rect x="8.376" y="16.167" fill="#FFFFFF" width="0.906" height="4.875"/>
	<rect x="10.445" y="15.167" fill="#FFFFFF" width="0.906" height="5.875"/>
	<rect x="12.514" y="18.167" fill="#FFFFFF" width="0.906" height="2.875"/>
	<rect x="14.583" y="17.167" fill="#FFFFFF" width="0.906" height="3.875"/>
	<rect x="16.651" y="19.167" fill="#FFFFFF" width="0.906" height="1.875"/>
	<rect x="18.721" y="16.167" fill="#FFFFFF" width="0.906" height="4.875"/>
	<polyline fill="none" stroke="#FFFFFF" stroke-width="0.5" stroke-miterlimit="10" points="8.829,15.323 10.673,12.698 
		13.142,15.948 15.036,14.677 16.893,17.201 19.174,13.604 	"/>
	<circle fill="#FFFFFF" cx="10.673" cy="12.698" r="0.637"/>
	<circle fill="#FFFFFF" cx="12.967" cy="15.804" r="0.637"/>
	<circle fill="#FFFFFF" cx="15.036" cy="14.489" r="0.637"/>
	<circle fill="#FFFFFF" cx="16.893" cy="17.167" r="0.637"/>
	<circle fill="#FFFFFF" cx="19.174" cy="13.5" r="0.637"/>
	<circle fill="#FFFFFF" cx="8.829" cy="15.345" r="0.637"/>
	<linearGradient id="SVGID_9_" gradientUnits="userSpaceOnUse" x1="8.5098" y1="15.3447" x2="9.1484" y2="15.3447">
		<stop  offset="0" style="stop-color:#0C3454"/>
		<stop  offset="0.9946" style="stop-color:#2FA397"/>
	</linearGradient>
	<circle fill="url(#SVGID_9_)" cx="8.829" cy="15.345" r="0.319"/>
	<linearGradient id="SVGID_10_" gradientUnits="userSpaceOnUse" x1="10.3535" y1="12.6982" x2="10.9922" y2="12.6982">
		<stop  offset="0" style="stop-color:#0C3454"/>
		<stop  offset="0.9946" style="stop-color:#2FA397"/>
	</linearGradient>
	<circle fill="url(#SVGID_10_)" cx="10.673" cy="12.698" r="0.319"/>
	<linearGradient id="SVGID_11_" gradientUnits="userSpaceOnUse" x1="12.6475" y1="15.8037" x2="13.2861" y2="15.8037">
		<stop  offset="0" style="stop-color:#0C3454"/>
		<stop  offset="0.9946" style="stop-color:#2FA397"/>
	</linearGradient>
	<circle fill="url(#SVGID_11_)" cx="12.967" cy="15.804" r="0.319"/>
	<linearGradient id="SVGID_12_" gradientUnits="userSpaceOnUse" x1="14.7168" y1="14.4561" x2="15.3555" y2="14.4561">
		<stop  offset="0" style="stop-color:#0C3454"/>
		<stop  offset="0.9946" style="stop-color:#2FA397"/>
	</linearGradient>
	<circle fill="url(#SVGID_12_)" cx="15.036" cy="14.456" r="0.319"/>
	<linearGradient id="SVGID_13_" gradientUnits="userSpaceOnUse" x1="16.5732" y1="17.2012" x2="17.2119" y2="17.2012">
		<stop  offset="0" style="stop-color:#0C3454"/>
		<stop  offset="0.9946" style="stop-color:#2FA397"/>
	</linearGradient>
	<circle fill="url(#SVGID_13_)" cx="16.893" cy="17.201" r="0.319"/>
	<linearGradient id="SVGID_14_" gradientUnits="userSpaceOnUse" x1="18.8545" y1="13.5" x2="19.4932" y2="13.5">
		<stop  offset="0" style="stop-color:#0C3454"/>
		<stop  offset="0.9946" style="stop-color:#2FA397"/>
	</linearGradient>
	<circle fill="url(#SVGID_14_)" cx="19.174" cy="13.5" r="0.319"/>
</g>
</svg>
